<svg xmlns="http://www.w3.org/2000/svg" xmlns:xlink="http://www.w3.org/1999/xlink" width="105.159" height="107.588" viewBox="0 0 105.159 107.588">
  <defs>
    <clipPath id="clip-path">
      <rect id="Rectangle_129" data-name="Rectangle 129" width="105.159" height="107.588" transform="translate(0 0)" fill="none"/>
    </clipPath>
  </defs>
  <g id="Group_43" data-name="Group 43" clip-path="url(#clip-path)">
    <path id="Path_425" data-name="Path 425" d="M52.579,0C23.541,0,0,24.082,0,53.792s23.541,53.794,52.579,53.794S105.159,83.5,105.159,53.792,81.618,0,52.579,0m0,105.368c-27.84,0-50.41-23.091-50.41-51.574S24.739,2.218,52.579,2.218s50.41,23.091,50.41,51.574-22.569,51.574-50.41,51.574" transform="translate(0 0.002)" fill="#00a3dc"/>
    <path id="Path_426" data-name="Path 426" d="M504.78,759.8h-.706v2.539h.706a.632.632,0,0,0,.474-.2.679.679,0,0,0,.2-.488v-1.159a.6.6,0,0,0-.669-.69" transform="translate(-458.48 -689.491)" fill="#00a3dc"/>
    <path id="Path_427" data-name="Path 427" d="M809.02,477.348h-.683v8.639h.683q1.421,0,1.435-1.9v-4.876q0-1.867-1.435-1.868" transform="translate(-735.222 -433.174)" fill="#00a3dc"/>
    <path id="Path_428" data-name="Path 428" d="M237.307,203.1c-18.893,0-34.209,15.67-34.209,35s15.316,35,34.209,35,34.209-15.67,34.209-35-15.316-35-34.209-35m-1.208,9.324,1.208-3.8,1.208,3.8h3.909l-3.163,2.351,1.208,3.8-3.163-2.351-3.163,2.351,1.208-3.8-3.163-2.351ZM225.222,214.8l.835-2.628.835,2.628h2.7l-2.185,1.624.835,2.628-2.185-1.624-2.185,1.624.835-2.628-2.185-1.624Zm-1.164,41.311h-1.213v-.931a.673.673,0,0,0-.2-.488.643.643,0,0,0-.477-.2.633.633,0,0,0-.473.2.678.678,0,0,0-.2.488v4.344a.667.667,0,0,0,.2.484.637.637,0,0,0,.473.2.647.647,0,0,0,.477-.2.662.662,0,0,0,.2-.484v-1.1h1.213v1.108a1.838,1.838,0,0,1-.545,1.342,1.831,1.831,0,0,1-2.621,0,1.845,1.845,0,0,1-.542-1.339V255.2a1.849,1.849,0,0,1,.545-1.346,1.827,1.827,0,0,1,2.624,0,1.863,1.863,0,0,1,.539,1.343Zm.007-22.429h-6.926V229.3q0-1.369-1.087-1.383a.925.925,0,0,0-.773.371,1.619,1.619,0,0,0-.286,1.012v14.385q0,1.369,1.143,1.383a1,1,0,0,0,.829-.4,1.636,1.636,0,0,0,.314-1.041v-4.02h-1.031v-4.42h7.817V250.2h-5.5l-.543-3.037h-.348a5.049,5.049,0,0,1-1.512,2.63,4.435,4.435,0,0,1-2.794.763,4.727,4.727,0,0,1-3.853-1.839,8.614,8.614,0,0,1-1.428-5.4V231.2q0-4.59,2.041-6.75t6.208-2.16a8.334,8.334,0,0,1,5.748,1.782,6.631,6.631,0,0,1,1.986,5.2Zm4.282,20.909h-2.16v2.166h1.578v1.2h-1.578v2.166h2.16v1.2h-3.33v-7.941h3.33Zm3.463,6.738-.709-2.989h-.78v2.989h-1.17v-7.934H231a1.763,1.763,0,0,1,1.436.551,2.034,2.034,0,0,1,.4,1.343v1.153a1.873,1.873,0,0,1-.625,1.425l.867,3.464Zm5.536-6.731h-1.238v6.731h-1.17v-6.731h-1.244v-1.2h3.652Zm2.111,6.731h-1.17v-7.934h1.17ZM234.362,250.2l-1.8-17.55h-.376l.376,9.381V250.2h-6.591V222.615h9.838l1.143,13.045.293,4.291h.362l.265-4.291,1.143-13.045h9.81V250.2h-6.591l.028-8.14.348-9.352h-.376L240.354,250.2Zm9.471,4.386h-2.16v2.166h1.578v1.2h-1.578v3.369H240.5v-7.941h3.33Zm1.974,6.738h-1.17v-7.934h1.17Zm4.376-6.738h-2.16v2.166H249.6v1.2h-1.578v2.166h2.16v1.2h-3.33v-7.941h3.33Zm-1.626-37.163-2.185,1.624.835-2.628-2.185-1.624h2.7l.835-2.628.835,2.628h2.7l-2.185,1.624.835,2.628Zm6.107,42a1.862,1.862,0,0,1-.538,1.343,1.742,1.742,0,0,1-1.3.557h-1.838v-7.941h1.838a1.74,1.74,0,0,1,1.3.557,1.861,1.861,0,0,1,.535,1.336Zm10.521-34.786a7.967,7.967,0,0,1,1.853,5.589v4.733a8.638,8.638,0,0,1-1.916,5.81,6.408,6.408,0,0,1-5.135,2.245h-2.146V250.2h-6.87V222.615h9.016a6.693,6.693,0,0,1,5.2,2.024" transform="translate(-184.728 -184.301)" fill="#00a3dc"/>
    <path id="Path_429" data-name="Path 429" d="M746.2,759.735h-.706v5.535h.706a.619.619,0,0,0,.47-.206.687.687,0,0,0,.192-.485v-4.154a.678.678,0,0,0-.2-.487.626.626,0,0,0-.467-.2" transform="translate(-678.06 -689.429)" fill="#00a3dc"/>
    <path id="Path_430" data-name="Path 430" d="M66.571,557.453a4.655,4.655,0,0,0,.48-2.3,5.7,5.7,0,0,0-.431-2.024,4.585,4.585,0,0,0-.919-1.511l-3.248.084.09,3.63,1.374-.035-.048-1.929,1.034-.027a3.655,3.655,0,0,1,.515.9,2.955,2.955,0,0,1,.229,1.056,2.231,2.231,0,0,1-.683,1.749,3.147,3.147,0,0,1-2.161.716,2.838,2.838,0,0,1-2.046-.6,2.308,2.308,0,0,1-.727-1.738,2.041,2.041,0,0,1,.318-1.224,1.73,1.73,0,0,1,.932-.687l-.347-1.665a2.874,2.874,0,0,0-1.733,1.169,4.058,4.058,0,0,0-.577,2.443,4.4,4.4,0,0,0,.455,1.987,3.637,3.637,0,0,0,1.558,1.56,4.6,4.6,0,0,0,2.277.488,4.871,4.871,0,0,0,2.16-.545,3.452,3.452,0,0,0,1.5-1.5" transform="translate(-53.317 -500.575)" fill="#00a3dc"/>
    <path id="Path_431" data-name="Path 431" d="M67.577,452.832a3.89,3.89,0,0,0,.942.992,5.122,5.122,0,0,0,1.973.806,4.13,4.13,0,0,0,3.211-.444,4.453,4.453,0,0,0,1.159-5.776,4.258,4.258,0,0,0-2.81-1.715,4.2,4.2,0,0,0-3.265.441A3.925,3.925,0,0,0,67.11,449.8a4.685,4.685,0,0,0-.039,1.828,3.289,3.289,0,0,0,.506,1.208m.915-2.762a2.129,2.129,0,0,1,1.006-1.494,3,3,0,0,1,2.173-.183,3.1,3.1,0,0,1,1.956,1.073,2.281,2.281,0,0,1-.66,3.246,2.994,2.994,0,0,1-2.186.207,3.063,3.063,0,0,1-1.936-1.06,2.181,2.181,0,0,1-.352-1.789" transform="translate(-60.939 -405.236)" fill="#00a3dc"/>
    <path id="Path_432" data-name="Path 432" d="M97.75,354.3a5.181,5.181,0,0,0,1.775,1.2,4.125,4.125,0,0,0,3.233.225,3.885,3.885,0,0,0,2.162-2.271,3.97,3.97,0,0,0,.108-3.149,4.312,4.312,0,0,0-2.416-2.258,4.2,4.2,0,0,0-3.285-.239,3.876,3.876,0,0,0-2.166,2.26,4.673,4.673,0,0,0-.4,1.783,3.314,3.314,0,0,0,.259,1.288,3.94,3.94,0,0,0,.728,1.166m.711-3.683a2.1,2.1,0,0,1,1.278-1.256,3,3,0,0,1,2.165.267,3.138,3.138,0,0,1,1.706,1.453,2.159,2.159,0,0,1,.014,1.806,2.1,2.1,0,0,1-1.3,1.238,2.993,2.993,0,0,1-2.182-.247,3.1,3.1,0,0,1-1.689-1.436,2.187,2.187,0,0,1,.006-1.825" transform="translate(-88.011 -315.409)" fill="#00a3dc"/>
    <path id="Path_433" data-name="Path 433" d="M143.1,269.834a5.134,5.134,0,0,0,.7-1.319,3.028,3.028,0,0,0,.137-1.351,3.725,3.725,0,0,0-.672-1.581A5.42,5.42,0,0,0,142,264.348a5.97,5.97,0,0,0-1.728-.916,3.486,3.486,0,0,0-1.529-.131,2.7,2.7,0,0,0-1.323.583,5.974,5.974,0,0,0-1.024,1.2l-1.739,2.513,6.657,4.821Zm-6.37-2.793.427-.618a7.623,7.623,0,0,1,.845-1.083,1.556,1.556,0,0,1,.754-.41,1.827,1.827,0,0,1,.915.077,4.842,4.842,0,0,1,1.282.719,5.367,5.367,0,0,1,1.123,1.022,1.784,1.784,0,0,1,.393.825,1.588,1.588,0,0,1-.107.756,4.61,4.61,0,0,1-.512.878l-.71,1.027Z" transform="translate(-122.475 -238.904)" fill="#00a3dc"/>
    <path id="Path_434" data-name="Path 434" d="M232.928,153.985l-3.943-5.184,5.217,4.17,1.251-1-2.666-6.2,3.943,5.184,1.207-.961-5.009-6.585-1.949,1.552,2.262,5.412-4.585-3.562-1.945,1.549,5.009,6.585Z" transform="translate(-206.205 -130.14)" fill="#00a3dc"/>
    <path id="Path_435" data-name="Path 435" d="M349.618,116.1l-.192-2.007,2.941-1.439,1.442,1.4,1.616-.791-6.465-6.086-1.571.769.653,8.93Zm1.679-4.481-2.008.982-.312-3.28Z" transform="translate(-315.967 -97.258)" fill="#00a3dc"/>
    <path id="Path_436" data-name="Path 436" d="M423.537,76.313l-1.29-5.279,4.48,4.463,1.6-.41-1.978-8.1-1.484.38,1.321,5.406-4.56-4.578-1.554.4,1.978,8.1Z" transform="translate(-382.079 -60.792)" fill="#00a3dc"/>
    <path id="Path_437" data-name="Path 437" d="M522.734,65.9a2.312,2.312,0,0,0,.5.9,2.531,2.531,0,0,0,.983.675,4.424,4.424,0,0,0,1.782.2,4.1,4.1,0,0,0,1.557-.321,2.491,2.491,0,0,0,.931-.721,2.378,2.378,0,0,0,.448-1.068,11.533,11.533,0,0,0,.045-2.127l-.183-4.379-1.645.072.192,4.612a9.632,9.632,0,0,1-.013,1.419,1.166,1.166,0,0,1-.4.738,1.636,1.636,0,0,1-1.044.339,1.725,1.725,0,0,1-1.1-.263,1.352,1.352,0,0,1-.537-.8,9.591,9.591,0,0,1-.119-1.391l-.188-4.515-1.645.072.185,4.447a10.354,10.354,0,0,0,.249,2.109" transform="translate(-475.057 -53.597)" fill="#00a3dc"/>
    <path id="Path_438" data-name="Path 438" d="M615.5,66.263l3.37.5.2-1.4-3.37-.5.275-1.955,3.9.574.2-1.4-5.534-.814-1.16,8.26,1.63.24Z" transform="translate(-557.893 -55.603)" fill="#00a3dc"/>
    <path id="Path_439" data-name="Path 439" d="M672.024,89.616l1.208-1.594,3.1,1.02.111,2.027,1.706.561-.614-8.967-1.658-.545-5.52,6.95Zm4.085-5.377.144,3.3-2.119-.7Z" transform="translate(-609.726 -74.52)" fill="#00a3dc"/>
    <path id="Path_440" data-name="Path 440" d="M774.555,129.185a3.42,3.42,0,0,0,2.206.51,3.56,3.56,0,0,0,2.038-1.155l-1.143-1.253a2.42,2.42,0,0,1-1.236.83,1.618,1.618,0,0,1-1.189-.2,1.846,1.846,0,0,1-.938-1.312,3.561,3.561,0,0,1,.6-2.243,3.227,3.227,0,0,1,1.527-1.6,1.818,1.818,0,0,1,1.6.159,1.755,1.755,0,0,1,.792.887,1.807,1.807,0,0,1,.035,1.2l1.612.471a3.364,3.364,0,0,0,.01-1.758,3.45,3.45,0,0,0-1.684-2.009,3.534,3.534,0,0,0-2.962-.384,4.493,4.493,0,0,0-2.468,2.291,4.429,4.429,0,0,0-.578,3.231,3.578,3.578,0,0,0,1.782,2.33" transform="translate(-702.781 -109.95)" fill="#00a3dc"/>
    <path id="Path_441" data-name="Path 441" d="M851.6,167.183l1.26,1.085,4.362-5.305,1.848,1.59.888-1.08L855,159.2l-.888,1.08,1.852,1.594Z" transform="translate(-774.575 -144.471)" fill="#00a3dc"/>
    <path id="Path_442" data-name="Path 442" d="M902.909,227a2.326,2.326,0,0,0-.407.952,2.65,2.65,0,0,0,.063,1.21,4.65,4.65,0,0,0,.914,1.577,4.211,4.211,0,0,0,1.186,1.081,2.447,2.447,0,0,0,1.123.329,2.256,2.256,0,0,0,1.1-.274,11.021,11.021,0,0,0,1.69-1.24l3.314-2.778-1.044-1.3-3.49,2.925a9.2,9.2,0,0,1-1.117.841,1.111,1.111,0,0,1-.816.117,1.66,1.66,0,0,1-.891-.651,1.815,1.815,0,0,1-.455-1.057,1.372,1.372,0,0,1,.3-.92,9.25,9.25,0,0,1,1.016-.932l3.417-2.864-1.044-1.3-3.366,2.821a10.006,10.006,0,0,0-1.5,1.469" transform="translate(-820.831 -202.096)" fill="#00a3dc"/>
    <path id="Path_443" data-name="Path 443" d="M946.255,311.3l3.01-1.628.156.3a2.814,2.814,0,0,1,.306.794,1.324,1.324,0,0,1-.068.61,11.94,11.94,0,0,1-.654,1.358l-1.012,1.925.921,1.781.941-1.662a9.624,9.624,0,0,0,.732-1.481,4.023,4.023,0,0,0,.193-1.125,2.6,2.6,0,0,0,1.421,1.1,2.135,2.135,0,0,0,1.593-.237,2.375,2.375,0,0,0,.97-.937,1.954,1.954,0,0,0,.247-1.232,6.153,6.153,0,0,0-.694-1.823l-1.62-3.135-7.21,3.9Zm5.991-3.241.6,1.162q.468.906.537,1.1a1.055,1.055,0,0,1,.007.714.992.992,0,0,1-.485.517,1.043,1.043,0,0,1-.619.142.878.878,0,0,1-.521-.253,6.452,6.452,0,0,1-.78-1.291l-.57-1.1Z" transform="translate(-859.965 -277.597)" fill="#00a3dc"/>
    <path id="Path_843" data-name="Path 843" d="M.012.06,8.19,0,8.178,1.681,0,1.741Z" transform="matrix(0.94, -0.341, 0.341, 0.94, 88.943, 39.42)" fill="#00a3dc"/>
    <path id="Path_444" data-name="Path 444" d="M995.994,441.789l5.2-1.124-4.525,4.415.341,1.654,7.98-1.723-.316-1.532-5.329,1.151,4.64-4.492-.331-1.6-7.981,1.723Z" transform="translate(-905.619 -397.953)" fill="#00a3dc"/>
    <path id="Path_445" data-name="Path 445" d="M1018.847,541.1a3.645,3.645,0,0,0-1.515-1.6,4.611,4.611,0,0,0-2.263-.552,4.867,4.867,0,0,0-2.174.485,3.446,3.446,0,0,0-1.539,1.459,4.65,4.65,0,0,0-.542,2.281,5.7,5.7,0,0,0,.377,2.036,4.591,4.591,0,0,0,.879,1.536l3.249.007.008-3.631-1.374,0,0,1.93-1.035,0a3.656,3.656,0,0,1-.49-.915,2.957,2.957,0,0,1-.2-1.062,2.229,2.229,0,0,1,.73-1.729,3.145,3.145,0,0,1,2.18-.655,2.841,2.841,0,0,1,2.029.656,2.31,2.31,0,0,1,.681,1.758,2.039,2.039,0,0,1-.35,1.215,1.728,1.728,0,0,1-.95.661l.3,1.674a2.869,2.869,0,0,0,1.763-1.12,4.056,4.056,0,0,0,.642-2.426,4.4,4.4,0,0,0-.4-2" transform="translate(-919.385 -489.071)" fill="#00a3dc"/>
    <path id="Path_446" data-name="Path 446" d="M267.592,911.569a2.631,2.631,0,0,0,.533-1.605,2.218,2.218,0,0,0-.5-1.361,9.635,9.635,0,0,0-1.526-1.261l-2.155-1.564-4.719,6.806,1.343.975,1.78-2.567.876.636a9.369,9.369,0,0,0,1.461.914,2.34,2.34,0,0,0,.92.183,2.193,2.193,0,0,0,1.03-.261,2.682,2.682,0,0,0,.953-.892m-1.4-.986a1.1,1.1,0,0,1-.519.419,1.058,1.058,0,0,1-.652.03,4.231,4.231,0,0,1-1.136-.664l-.735-.534,1.339-1.931.649.471a7.963,7.963,0,0,1,.934.748,1.178,1.178,0,0,1,.331.694,1.1,1.1,0,0,1-.212.768" transform="translate(-235.782 -821.956)" fill="#00a3dc"/>
    <path id="Path_447" data-name="Path 447" d="M345.333,956.118a2.205,2.205,0,0,0,1.116-1.186,2.455,2.455,0,0,0,.205-1.348,1.936,1.936,0,0,0-.542-1.129,5.911,5.911,0,0,0-1.641-1.006l-3.158-1.461-3.361,7.6,1.5.694,1.4-3.174.3.141a2.708,2.708,0,0,1,.718.435,1.3,1.3,0,0,1,.311.525,11.986,11.986,0,0,1,.3,1.484l.354,2.156,1.795.83-.252-1.9a9.713,9.713,0,0,0-.309-1.63,3.968,3.968,0,0,0-.522-1.01,2.537,2.537,0,0,0,1.781-.023m-1.44-1.176a6.2,6.2,0,0,1-1.39-.531l-1.11-.514.853-1.929,1.171.542q.912.422,1.083.533a.957.957,0,0,1,.36,1.272,1.08,1.08,0,0,1-.4.5.87.87,0,0,1-.563.127" transform="translate(-307.385 -862.076)" fill="#00a3dc"/>
    <path id="Path_448" data-name="Path 448" d="M428.133,989.319l-4.906,7.417,1.7.4,1.067-1.7,3.179.739.284,2.01,1.747.406-1.377-8.878ZM426.8,994.18l1.745-2.77.425,3.274Z" transform="translate(-384.947 -897.767)" fill="#00a3dc"/>
    <path id="Path_449" data-name="Path 449" d="M532.472,1002.524a1.836,1.836,0,0,1,1.487-.629,1.707,1.707,0,0,1,1.106.4,1.779,1.779,0,0,1,.579,1.039l1.639-.358a3.317,3.317,0,0,0-.8-1.557,3.352,3.352,0,0,0-2.409-.966,3.561,3.561,0,0,0-2.792,1.083,4.624,4.624,0,0,0-1.128,3.209,4.411,4.411,0,0,0,.972,3.13,3.474,3.474,0,0,0,2.643,1.2,3.426,3.426,0,0,0,2.182-.609,3.671,3.671,0,0,0,1.269-2l-1.584-.558a2.5,2.5,0,0,1-.711,1.326,1.627,1.627,0,0,1-1.139.4,1.792,1.792,0,0,1-1.43-.708,3.563,3.563,0,0,1-.5-2.267,3.316,3.316,0,0,1,.616-2.143" transform="translate(-482.202 -907.874)" fill="#00a3dc"/>
    <path id="Path_450" data-name="Path 450" d="M618.855,991.249l-6.4,1.038.216,1.394,2.39-.387,1.06,6.847,1.627-.264-1.06-6.848,2.385-.386Z" transform="translate(-557.056 -899.519)" fill="#00a3dc"/>
    <path id="Path_844" data-name="Path 844" d="M.05.01,1.7,0,1.65,8.33,0,8.34Z" transform="translate(62.327 91.445) rotate(-16.089)" fill="#00a3dc"/>
    <path id="Path_451" data-name="Path 451" d="M735.579,963.857a2.535,2.535,0,0,1-.084,1.51,1.668,1.668,0,0,1-.861.861,1.77,1.77,0,0,1-1.588-.01,3.483,3.483,0,0,1-1.407-1.826,3.331,3.331,0,0,1-.344-2.205,1.883,1.883,0,0,1,1.078-1.222,1.694,1.694,0,0,1,1.168-.122,1.73,1.73,0,0,1,.96.684l1.329-1.044a3.225,3.225,0,0,0-1.375-1.055,3.323,3.323,0,0,0-2.581.188,3.654,3.654,0,0,0-2.065,2.206,4.657,4.657,0,0,0,.33,3.393,4.3,4.3,0,0,0,2.193,2.4,3.436,3.436,0,0,0,2.891-.078,3.508,3.508,0,0,0,1.714-1.51,3.74,3.74,0,0,0,.306-2.362Z" transform="translate(-663.627 -870.479)" fill="#00a3dc"/>
    <path id="Path_452" data-name="Path 452" d="M801.206,914.611l-1.276-1.858,3.351-2.408-.79-1.151L799.14,911.6l-1.039-1.514,3.6-2.588-.793-1.155L795.96,909.9l4.688,6.828,5.076-3.648-.79-1.15Z" transform="translate(-723.965 -822.472)" fill="#00a3dc"/>
    <path id="Path_453" data-name="Path 453" d="M114.22,747.182l-1.822-2.615-.028,3.211-2.994.965,2.976,1.02-.028,3.211,1.868-2.581,2.976,1.02-1.822-2.615,1.868-2.58Z" transform="translate(-99.483 -675.665)" fill="#00a3dc"/>
    <path id="Path_454" data-name="Path 454" d="M971.433,747.778l-.029-3.211-1.822,2.615-2.994-.964,1.868,2.581-1.822,2.615,2.976-1.02,1.868,2.581-.029-3.211,2.976-1.02Z" transform="translate(-879.161 -675.665)" fill="#00a3dc"/>
  </g>
</svg>
