<svg id="Group_50" data-name="Group 50" xmlns="http://www.w3.org/2000/svg" xmlns:xlink="http://www.w3.org/1999/xlink" width="107.588" height="107.588" viewBox="0 0 107.588 107.588">
  <defs>
    <clipPath id="clip-path">
      <rect id="Rectangle_134" data-name="Rectangle 134" width="107.588" height="107.588" fill="none"/>
    </clipPath>
  </defs>
  <g id="Group_49" data-name="Group 49" clip-path="url(#clip-path)">
    <path id="Path_845" data-name="Path 845" d="M120.741,172.2a51.3,51.3,0,1,1,20.031-4.044,51.14,51.14,0,0,1-20.031,4.044m0-101.968a50.507,50.507,0,1,0,50.507,50.507,50.564,50.564,0,0,0-50.507-50.507" transform="translate(-66.947 -66.947)" fill="#00a3dc"/>
    <path id="Path_846" data-name="Path 846" d="M53.794,107.588A53.808,53.808,0,0,1,32.855,4.228,53.808,53.808,0,0,1,74.734,103.36a53.459,53.459,0,0,1-20.939,4.228m0-106.633a52.839,52.839,0,1,0,52.839,52.84A52.9,52.9,0,0,0,53.794.955" transform="translate(0 0)" fill="#00a3dc"/>
    <path id="Path_847" data-name="Path 847" d="M842.674,815.415a27.256,27.256,0,1,1-27.256-27.256,27.256,27.256,0,0,1,27.256,27.256" transform="translate(-761.624 -761.621)" fill="#00a3dc"/>
    <path id="Path_848" data-name="Path 848" d="M754.654,784.024a29.373,29.373,0,1,1,20.77-8.6,29.181,29.181,0,0,1-20.77,8.6m0-57.434a28.061,28.061,0,1,0,28.06,28.061,28.093,28.093,0,0,0-28.06-28.061" transform="translate(-700.859 -700.856)" fill="#00a3dc"/>
    <path id="Path_849" data-name="Path 849" d="M575.02,671.626a2.376,2.376,0,0,1-1.757-.676l-4.221-3.8a2.432,2.432,0,1,1,3.256-3.612l.892.8-1.02,1.131-.892-.8a.983.983,0,0,0-.689-.286.92.92,0,0,0-.863.957.981.981,0,0,0,.355.656l4.221,3.8a.981.981,0,0,0,.689.286.92.92,0,0,0,.863-.957.983.983,0,0,0-.355-.656l-1.088-.981,1.02-1.131,1.088.981a2.487,2.487,0,0,1-1.5,4.288" transform="translate(-549.053 -640.535)" fill="#00a3dc"/>
    <path id="Path_850" data-name="Path 850" d="M778.6,446.132l3.627-2.506.832,1.205-2.35,1.623,1.623,2.35,1.868-1.29.832,1.205-1.868,1.29,1.706,2.47,2.35-1.623.832,1.205-3.627,2.506Z" transform="translate(-752.389 -428.689)" fill="#00a3dc"/>
    <path id="Path_851" data-name="Path 851" d="M1053.146,336.85l-2.572-3.546-.752.289,1.519,3.951-1.449.557-3.68-9.569,2.269-.873a2.381,2.381,0,0,1,1.893-.014,2.42,2.42,0,0,1,1.254,1.424l.4,1.053a2.688,2.688,0,0,1,.187,1.262,2.075,2.075,0,0,1-.433,1.077l2.862,3.811Zm-3.85-4.624.752-.289a.866.866,0,0,0,.547-1.23l-.426-1.107a.866.866,0,0,0-1.23-.547l-.752.289Z" transform="translate(-1010.985 -316.431)" fill="#00a3dc"/>
    <path id="Path_852" data-name="Path 852" d="M1346.862,247.146l4.908-.645.191,1.452-1.684.221,1.144,8.713-1.539.2-1.144-8.713-1.685.221Z" transform="translate(-1301.512 -238.202)" fill="#00a3dc"/>
    <rect id="Rectangle_132" data-name="Rectangle 132" width="10.252" height="1.553" transform="matrix(0.062, -0.998, 0.998, 0.062, 55.251, 18.505)" fill="#00a3dc"/>
    <path id="Path_853" data-name="Path 853" d="M1811.765,274.065l4.194,1.1-.37,1.417-2.692-.7-.759,2.9,2.125.555-.37,1.417-2.126-.556-1.093,4.18-1.5-.393Z" transform="translate(-1748.257 -264.837)" fill="#00a3dc"/>
    <rect id="Rectangle_133" data-name="Rectangle 133" width="10.252" height="1.553" transform="matrix(0.435, -0.9, 0.9, 0.435, 68.483, 21.656)" fill="#00a3dc"/>
    <path id="Path_854" data-name="Path 854" d="M2188.51,481.159l3.521,2.653-.881,1.17-2.281-1.719-1.719,2.281,1.813,1.366-.882,1.17-1.813-1.366-1.807,2.4,2.281,1.719-.882,1.17-3.521-2.653Z" transform="translate(-2108.859 -464.958)" fill="#00a3dc"/>
    <path id="Path_855" data-name="Path 855" d="M2373.222,684.873l1.545,1.877a2.38,2.38,0,0,1,.612,1.792,2.42,2.42,0,0,1-.955,1.64l-4.138,3.408a2.42,2.42,0,0,1-1.792.622,2.379,2.379,0,0,1-1.641-.944l-1.546-1.877Zm-5.284,7.407a.866.866,0,0,0,1.34.13l4.183-3.445a.866.866,0,0,0,.13-1.34l-.512-.622-5.653,4.655Z" transform="translate(-2285.667 -661.813)" fill="#00a3dc"/>
    <path id="Path_856" data-name="Path 856" d="M643.775,2324.606a2.376,2.376,0,0,1,.735-1.733l3.945-4.09a2.432,2.432,0,1,1,3.5,3.376l-.834.864-1.1-1.057.834-.865a.982.982,0,0,0,.309-.679.92.92,0,0,0-.928-.9.984.984,0,0,0-.667.333l-3.945,4.09a.981.981,0,0,0-.309.679.919.919,0,0,0,.928.895.983.983,0,0,0,.667-.333l1.017-1.054,1.1,1.058-1.017,1.054a2.487,2.487,0,0,1-4.235-1.643" transform="translate(-622.098 -2239.937)" fill="#00a3dc"/>
    <path id="Path_857" data-name="Path 857" d="M883.239,2483.23a2.412,2.412,0,0,1,.311-1.9l2.823-4.831a2.412,2.412,0,0,1,1.5-1.2,2.724,2.724,0,0,1,3.111,1.818,2.411,2.411,0,0,1-.311,1.9l-2.823,4.831a2.412,2.412,0,0,1-1.5,1.2,2.723,2.723,0,0,1-3.111-1.818m2.678.352a1.047,1.047,0,0,0,.592-.52l2.823-4.831a1.047,1.047,0,0,0,.162-.771,1.03,1.03,0,0,0-1.189-.695,1.045,1.045,0,0,0-.592.519l-2.823,4.831a1.045,1.045,0,0,0-.162.771,1.031,1.031,0,0,0,1.189.695" transform="translate(-853.425 -2391.886)" fill="#00a3dc"/>
    <path id="Path_858" data-name="Path 858" d="M1166.9,2572.92l-2.589,9.92-1.5-.392,1.775-6.8-3.178,6.436-1.049-.274.372-7.168-1.775,6.8-1.474-.385,2.588-9.92,2.126.554-.349,6.675,2.9-6.009Z" transform="translate(-1118.509 -2484.565)" fill="#00a3dc"/>
    <path id="Path_859" data-name="Path 859" d="M1544.752,2630.838l2.431-.039a2.38,2.38,0,0,1,1.783.637,2.419,2.419,0,0,1,.688,1.769l.02,1.2a2.42,2.42,0,0,1-.63,1.79,2.379,2.379,0,0,1-1.761.7l-.879.014.067,4.159-1.552.025Zm2.433,4.589a.866.866,0,0,0,.936-.967l-.02-1.26a.866.866,0,0,0-.967-.936l-.805.013.051,3.163Z" transform="translate(-1492.739 -2542.217)" fill="#00a3dc"/>
    <path id="Path_860" data-name="Path 860" d="M1810.34,2603.97l-1.625.384.195,2.287-1.511.357-.707-10.368,2.024-.479,4.014,9.586-1.539.364Zm-.544-1.406-1.6-4.031.375,4.321Z" transform="translate(-1745.859 -2508.738)" fill="#00a3dc"/>
    <path id="Path_861" data-name="Path 861" d="M2004.48,2482.091l1.521-.79,4.928,5.2-3.173-6.109,1.352-.7,4.726,9.1-1.456.756-4.844-4.877,3.025,5.823-1.352.7Z" transform="translate(-1936.988 -2396.194)" fill="#00a3dc"/>
    <path id="Path_862" data-name="Path 862" d="M2223.352,2315.175l2.4,5.841,2.846,3.212-1.162,1.03-2.846-3.212-5.51-3.083,1.239-1.1,3.492,2.13-1.673-3.743Z" transform="translate(-2144.358 -2237.221)" fill="#00a3dc"/>
    <path id="Path_863" data-name="Path 863" d="M243.161,1490.634l.906,2.788H247l-2.372,1.723.906,2.788-2.372-1.723-2.372,1.723.906-2.788-2.372-1.723h2.932Z" transform="translate(-231.265 -1440.443)" fill="#00a3dc"/>
    <path id="Path_864" data-name="Path 864" d="M310.493,1088.9l.906,2.788h2.932l-2.372,1.723.906,2.788-2.372-1.723-2.372,1.723.906-2.788-2.372-1.723h2.932Z" transform="translate(-296.33 -1052.233)" fill="#00a3dc"/>
    <path id="Path_865" data-name="Path 865" d="M2670.649,1088.9l.906,2.788h2.932l-2.372,1.723.906,2.788-2.371-1.723-2.372,1.723.906-2.788-2.372-1.723h2.932Z" transform="translate(-2577.018 -1052.233)" fill="#00a3dc"/>
    <path id="Path_866" data-name="Path 866" d="M370.737,1961.956l.906,2.788h2.932l-2.372,1.723.906,2.788-2.372-1.723-2.372,1.723.906-2.788-2.372-1.723h2.932Z" transform="translate(-354.546 -1895.895)" fill="#00a3dc"/>
    <path id="Path_867" data-name="Path 867" d="M2611.807,1965.5l.906,2.788h2.932l-2.372,1.723.906,2.788-2.372-1.724-2.372,1.724.906-2.788-2.372-1.723h2.932Z" transform="translate(-2520.157 -1899.32)" fill="#00a3dc"/>
    <path id="Path_868" data-name="Path 868" d="M2711.279,1511.9l.906,2.788h2.932l-2.372,1.723.906,2.788-2.372-1.724-2.372,1.724.906-2.788-2.372-1.723h2.932Z" transform="translate(-2616.279 -1460.989)" fill="#00a3dc"/>
    <path id="Path_869" data-name="Path 869" d="M1752.314,1362.1a11.915,11.915,0,0,1-4.423-.983,6.793,6.793,0,0,1-4.065-4.759,11.734,11.734,0,0,1,.134-6.239,6.352,6.352,0,0,1,3.862-4.31,11.332,11.332,0,0,1,9.076.066,6.572,6.572,0,0,1,4.028,5.2,12.677,12.677,0,0,1,0,4.826,6.933,6.933,0,0,1-5.929,5.834c-.883.175-1.786.247-2.68.366m-2.774-8.912c.041.78.043,1.519.127,2.249.2,1.762.868,2.388,2.573,2.5,1.414.091,2.613-.56,2.7-1.722a34.4,34.4,0,0,0,0-5.276c-.1-1.237-.871-1.821-2.133-1.913a5.667,5.667,0,0,0-1.613.181,1.76,1.76,0,0,0-1.429,1.576c-.115.81-.158,1.631-.229,2.408" transform="translate(-1684.764 -1299.61)" fill="#fff"/>
    <path id="Path_870" data-name="Path 870" d="M1267.1,1361.474c-.028.424-.047.716-.07,1.063h-3.549v-5.981c1.038,0,2.043-.007,3.047.009a.5.5,0,0,1,.335.21,5.563,5.563,0,0,0,5.276,2.331,3.852,3.852,0,0,0,1.113-.189,2.57,2.57,0,0,0,.643-.5c-.2-.214-.368-.532-.616-.623-.947-.347-1.925-.606-2.883-.924a30.3,30.3,0,0,1-4.335-1.514,4.824,4.824,0,0,1-1.99-7.088,5.009,5.009,0,0,1,3.676-2.217,9.618,9.618,0,0,1,6.724,1.017,3.993,3.993,0,0,0,.4.174l.1-.912h3.41v5.591c-1.061,0-2.108.01-3.155-.012-.133,0-.288-.15-.389-.268a6.346,6.346,0,0,0-5.516-2.074,1.258,1.258,0,0,0-.946.651c-.157.5.388.692.78.81,1.832.552,3.676,1.061,5.51,1.607a5.663,5.663,0,0,1,4.1,3.77,4.855,4.855,0,0,1-3.134,6.033,9.866,9.866,0,0,1-7.778-.591c-.221-.106-.441-.215-.754-.368" transform="translate(-1220.727 -1300.541)" fill="#fff"/>
    <path id="Path_871" data-name="Path 871" d="M936.905,1356.506h-2.348c-.02.25-.049.454-.049.658,0,2.422.009,4.845-.013,7.267,0,.492.136.714.638.645a.33.33,0,0,1,.063,0c.559.035,1.334-.135,1.619.163s.121,1.069.131,1.633c.013.691,0,1.383,0,2.123h-10.48V1365.1h2.327V1356.5h-2.333v-3.969h10.443Z" transform="translate(-895.267 -1306.989)" fill="#fff"/>
    <path id="Path_872" data-name="Path 872" d="M1141.832,1894.345c-3.97,5.645-9.387,8.606-16.346,8.39-6.462-.2-11.448-3.212-15.187-8.491.484-.214.7-.035.971.267,1.019,1.145,2.082,2.25,3.126,3.373a.616.616,0,0,0,.893.091c.47-.3.962-.574,1.475-.877l-2.08-2.859.165-.217a2.789,2.789,0,0,1,.723.451c.53.626,1.013,1.292,1.506,1.947a.54.54,0,0,0,.747.2c.929-.378,1.881-.7,2.88-1.066l-.589-1.359c.563-.264.762.1.881.454.22.654.593.753,1.247.619a26.834,26.834,0,0,1,2.942-.345c.442-.04.74-.159.627-.681.608-.287.642.1.643.543l3.377.434a1.221,1.221,0,0,1,.31.055c.57.236.911.03,1.107-.529.128-.365.28-.733.879-.53l-.5,1.333c1.012.372,1.971.739,2.944,1.065a.6.6,0,0,0,.507-.187c.512-.614.97-1.272,1.489-1.881a3.312,3.312,0,0,1,.733-.5l.2.21-2.023,2.819c.617.343,1.221.706,1.855,1.007.117.056.4-.1.527-.228,1.042-1.1,2.056-2.218,3.1-3.311a3.764,3.764,0,0,1,.735-.48l.14.282m-15.364,1.124c0,1.3-.018,2.408.014,3.519.007.246.193.7.285.7.521-.017,1.118.55,1.564-.108.719-1.061,1.412-2.14,2.109-3.215a1.66,1.66,0,0,0,.087-.429l-4.059-.463m-4.65.445-.1.277c.615.948,1.208,1.911,1.852,2.839.677.975.735.985,1.86.678a.621.621,0,0,0,.369-.445c.032-1.093.029-2.187,0-3.28,0-.145-.214-.415-.313-.408-1.225.089-2.447.22-3.67.339m1.593,4.142c-.743-1.2-1.478-2.4-2.227-3.587-.065-.1-.245-.238-.325-.213-.947.3-1.885.624-2.933.979a4.733,4.733,0,0,0,.484.556c.978.762,1.973,1.5,2.946,2.27a1.429,1.429,0,0,0,2.056-.006m5.451.026a1.33,1.33,0,0,0,1.789.079c.875-.682,1.794-1.307,2.692-1.96.334-.243.66-.5.99-.746l-.138-.315c-.891-.279-1.779-.568-2.677-.825a.468.468,0,0,0-.4.174c-.758,1.18-1.5,2.373-2.257,3.593m-6.646,1.49c1.093.768,6.79.762,7.873,0-1.619-1.644-6.34-1.642-7.873,0m8.494-.579q0,.1,0,.21a2.436,2.436,0,0,0,.843.088,16.591,16.591,0,0,0,4.811-2.27,3.168,3.168,0,0,0,.431-.443c-.478-.275-.9-.493-1.3-.755a.719.719,0,0,0-.992.11c-1.18.97-2.4,1.9-3.6,2.84a1.813,1.813,0,0,0-.2.22m-15.2-2.415c.087.157.1.206.129.228a15.642,15.642,0,0,0,5.3,2.544c.185.05.436-.139.67-.223-.09-.173-.1-.221-.129-.244-1.3-1.021-2.6-2.045-3.922-3.048a.65.65,0,0,0-.555-.077c-.505.236-.982.532-1.495.819" transform="translate(-1072.913 -1830.25)" fill="#fff"/>
    <path id="Path_873" data-name="Path 873" d="M1121.42,1050.681l.554-1.339c-1.028-.376-2.02-.755-3.029-1.085-.126-.041-.383.14-.5.283-.5.6-.947,1.237-1.454,1.827a3.406,3.406,0,0,1-.728.5l-.186-.206,2.013-2.834c-.583-.339-1.129-.694-1.713-.968a.729.729,0,0,0-.627.192c-1.042,1.067-2.047,2.171-3.087,3.241a1.675,1.675,0,0,1-.889.438c3.753-5.569,8.977-8.545,15.692-8.55,6.669,0,11.857,2.965,15.751,8.391-.517.238-.732,0-1.007-.307-1.017-1.118-2.077-2.2-3.118-3.293a.555.555,0,0,0-.829-.06c-.446.306-.927.56-1.445.867l2.037,2.839a.608.608,0,0,1-.915-.229q-.749-1.016-1.563-1.982a.61.61,0,0,0-.521-.179c-.971.33-1.928.7-2.944,1.082l.5,1.343c-.474.218-.7,0-.834-.392-.212-.641-.566-.813-1.274-.656-1.1.246-2.246.316-3.421.466a1.1,1.1,0,0,1-.08.373c-.071.12-.21.272-.324.276s-.328-.164-.325-.252c.012-.473-.281-.462-.621-.495a21.974,21.974,0,0,1-2.941-.363c-.753-.177-1.117.01-1.359.709-.162.468-.21.451-.813.361m5.694-1.282c0-1.408,0-2.642,0-3.877a.364.364,0,0,0-.082-.229,1.852,1.852,0,0,0-1.8.088c-.67.966-1.32,1.946-1.965,2.929a3.555,3.555,0,0,0-.233.645l4.08.444m.7-.1a12.117,12.117,0,0,0,4.1-.551c-.789-1.156-1.5-2.215-2.233-3.263a1.594,1.594,0,0,0-1.75-.214.4.4,0,0,0-.108.277c-.007,1.233,0,2.466,0,3.75m2.3-4.479c.77,1.221,1.516,2.412,2.277,3.593.063.1.252.208.341.18.931-.289,1.854-.6,2.88-.947a3.954,3.954,0,0,0-.427-.5c-1.049-.805-2.112-1.592-3.156-2.4a1.408,1.408,0,0,0-1.915.077m-10.855,2.847c.958.326,1.8.594,2.631.906.363.137.513.011.7-.286.612-1,1.257-1.981,1.887-2.971.1-.152.177-.313.339-.6-.505-.1-1.008-.383-1.3-.239a16.029,16.029,0,0,0-4.248,3.191m12.194-4.464a17.9,17.9,0,0,0-8.029.027c1.609,1.753,6.387,1.751,8.029-.027m-14.77,3.052c.6.343,1.02.546,1.4.8s.642.175.989-.108c1.14-.927,2.32-1.8,3.484-2.7.127-.1.248-.2.372-.306q-.008-.114-.016-.229a2.5,2.5,0,0,0-.991-.072c-1.1.413-2.185.87-3.242,1.382a23.1,23.1,0,0,0-1.995,1.232m15.245-2.494a1.769,1.769,0,0,0,.195.285c1.292,1,2.582,2.011,3.885,3a.591.591,0,0,0,.5.1c.517-.257,1.008-.567,1.5-.851-.053-.12-.059-.171-.088-.192a15.745,15.745,0,0,0-5.184-2.521c-.218-.059-.495.1-.8.18" transform="translate(-1074.339 -1007.09)" fill="#fff"/>
  </g>
</svg>
