<svg id="Group_46" data-name="Group 46" xmlns="http://www.w3.org/2000/svg" xmlns:xlink="http://www.w3.org/1999/xlink" width="107.588" height="107.588" viewBox="0 0 107.588 107.588">
  <defs>
    <clipPath id="clip-path">
      <rect id="Rectangle_130" data-name="Rectangle 130" width="107.588" height="107.588" fill="none"/>
    </clipPath>
  </defs>
  <g id="Group_45" data-name="Group 45" clip-path="url(#clip-path)">
    <path id="Path_455" data-name="Path 455" d="M50.979.071a53.969,53.969,0,1,0,3.86-.06C53.583-.013,52.3,0,50.979.071m3.789,3.237a51.106,51.106,0,0,1,5.159.369,50.427,50.427,0,1,1-8.755-.316c1.18-.059,2.482-.076,3.6-.053m-.974,17.125a33.36,33.36,0,1,0,33.36,33.36,33.378,33.378,0,0,0-33.36-33.36m0,2.474A30.886,30.886,0,1,1,22.908,53.793,30.866,30.866,0,0,1,53.794,22.907M37.141,36.433a1.5,1.5,0,0,0-.517.118c-2.543,1.1-2.21,10.137,1.546,19.09,2.868,6.838,5.546,10.332,9.643,13.956a20.972,20.972,0,0,0-8.1,5.028A26.905,26.905,0,0,1,53.77,70.959a26.92,26.92,0,0,1,14.106,3.689,20.962,20.962,0,0,0-8.112-5.042c4.1-3.627,6.782-7.121,9.653-13.965,3.756-8.953,4.089-17.991,1.546-19.09a1.5,1.5,0,0,0-.517-.118c-2.774-.151-8.305,6.148-11.681,14.6-2.892,7.244-3.36,11.747-2.9,17.709a18.46,18.46,0,0,0-4.134-.006c.455-5.959-.014-10.461-2.905-17.7-3.376-8.456-8.907-14.755-11.681-14.6m-.075,1.913c2.789.638,7.586,6.383,10.595,13.92a34.974,34.974,0,0,1,2.91,12.463A38.177,38.177,0,0,0,47.15,52.485c-2.766-6.38-6.793-11.627-10.084-14.14m33.455,0c-3.29,2.513-7.317,7.76-10.084,14.14a38.174,38.174,0,0,0-3.421,12.243,34.974,34.974,0,0,1,2.91-12.463c3.009-7.536,7.806-13.281,10.595-13.92M14.18,53.013A2.225,2.225,0,1,0,16.4,55.237a2.225,2.225,0,0,0-2.225-2.225m80.471,0a2.225,2.225,0,1,0,2.225,2.225,2.225,2.225,0,0,0-2.225-2.225" transform="translate(0 0)" fill="#00a3dc"/>
    <path id="Path_456" data-name="Path 456" d="M152.568,787.606a5.018,5.018,0,0,1-.576-1.582,3.454,3.454,0,0,1,.789-2.9,5.06,5.06,0,0,1,1.441-1.142,5,5,0,0,1,1.659-.594,3.723,3.723,0,0,1,1.574.079,3.533,3.533,0,0,1,1.356.734,4.79,4.79,0,0,1,1.082,1.344,6.653,6.653,0,0,1,.393.829,5.987,5.987,0,0,1,.24.734,4.966,4.966,0,0,1,.115.686c.021.214.04.4.049.568l-1.709.95-.116-.208c.026-.13.053-.293.083-.486a4.865,4.865,0,0,0,.055-.625,3.289,3.289,0,0,0-.058-.705,2.291,2.291,0,0,0-.256-.706,2.51,2.51,0,0,0-.528-.661,2,2,0,0,0-.753-.418,2.232,2.232,0,0,0-.967-.057,3.422,3.422,0,0,0-1.174.429,3.287,3.287,0,0,0-1,.8,2.213,2.213,0,0,0-.438.863,1.969,1.969,0,0,0-.016.852,2.657,2.657,0,0,0,.28.761,2.533,2.533,0,0,0,.462.6,3.03,3.03,0,0,0,.6.451,4.992,4.992,0,0,0,.533.268q.267.112.451.177l.105.189-1.685.936q-.266-.2-.5-.383a4.825,4.825,0,0,1-.461-.407,7.054,7.054,0,0,1-.512-.564,5.824,5.824,0,0,1-.514-.8" transform="translate(-138.307 -711.248)" fill="#00a3dc"/>
    <path id="Path_457" data-name="Path 457" d="M200.31,848.3a1.027,1.027,0,0,0,.311-.435.834.834,0,0,0-.023-.547,1.573,1.573,0,0,0-.246-.439c-.114-.15-.25-.321-.413-.509l-.494-.568-1.639,1.424.419.482a5.974,5.974,0,0,0,.584.6,1.186,1.186,0,0,0,.537.279,1.066,1.066,0,0,0,.484,0,1.236,1.236,0,0,0,.48-.281m-2.094,6.118L196.55,852.5l.789-3.6-.629-.723-2.232,1.94-1.357-1.561,6.086-5.289L201.5,845.9a8.014,8.014,0,0,1,.745.981,2.673,2.673,0,0,1,.367.958,2.109,2.109,0,0,1-.059,1.005,2,2,0,0,1-.636.911,2.4,2.4,0,0,1-1.373.641,3.12,3.12,0,0,1-1.482-.276Z" transform="translate(-175.799 -767.624)" fill="#00a3dc"/>
    <path id="Path_458" data-name="Path 458" d="M284.48,917.537a2.881,2.881,0,0,1-2.094,1.3,4.912,4.912,0,0,1-4.309-3.189,2.879,2.879,0,0,1,.633-2.375l3.064-4.139,1.68,1.244-2.993,4.044a1.888,1.888,0,0,0-.461,1.215,1.428,1.428,0,0,0,.673,1.011,1.468,1.468,0,0,0,1.149.359,1.845,1.845,0,0,0,1.046-.8l2.993-4.044,1.68,1.244Z" transform="translate(-253.081 -827.582)" fill="#00a3dc"/>
    <path id="Path_459" data-name="Path 459" d="M365.8,973.58l-5.3-2.433,3.363-7.328,5.3,2.433-.651,1.417-3.42-1.57-.581,1.265,3.174,1.457-.651,1.417-3.174-1.457-.831,1.811,3.421,1.57Z" transform="translate(-328.159 -877.362)" fill="#00a3dc"/>
    <path id="Path_460" data-name="Path 460" d="M455.431,1004.6l-5.644-1.4,1.948-7.824,2.018.5-1.571,6.311,3.626.9Z" transform="translate(-409.44 -906.084)" fill="#00a3dc"/>
    <path id="Path_461" data-name="Path 461" d="M541.122,1013.324l-2.513-.149-.386,6.492-2.076-.123.386-6.492-2.514-.15.093-1.557,7.1.422Z" transform="translate(-486.116 -920.625)" fill="#00a3dc"/>
    <path id="Path_462" data-name="Path 462" d="M620.183,1004.5l-2.277,5.3.422,3.09-2.06.281-.409-2.994-3.676-4.586,2.339-.319,2.15,2.855,1.247-3.318Z" transform="translate(-557.269 -914.397)" fill="#00a3dc"/>
    <path id="Path_463" data-name="Path 463" d="M756.675,961.372l-3.357,1.577.638,1.358,3.112-1.462.663,1.411-3.112,1.462,1.464,3.117-1.872.88-3.428-7.3,5.23-2.457Z" transform="translate(-683.435 -873.85)" fill="#00a3dc"/>
    <path id="Path_464" data-name="Path 464" d="M823.237,923.034a1.027,1.027,0,0,0-.41-.343.835.835,0,0,0-.547-.019,1.571,1.571,0,0,0-.457.211c-.158.1-.339.224-.539.373l-.6.448,1.294,1.744.513-.381a5.981,5.981,0,0,0,.641-.536,1.188,1.188,0,0,0,.32-.514,1.06,1.06,0,0,0,.033-.483,1.234,1.234,0,0,0-.244-.5m5.938,2.559-2.04,1.513-3.527-1.064-.77.571,1.762,2.375-1.661,1.233-4.8-6.475,2.8-2.078A8.025,8.025,0,0,1,821.97,921a2.669,2.669,0,0,1,.984-.292,2.11,2.11,0,0,1,1,.136,2,2,0,0,1,.86.7,2.4,2.4,0,0,1,.533,1.418,3.117,3.117,0,0,1-.39,1.456Z" transform="translate(-744.746 -838.109)" fill="#00a3dc"/>
    <path id="Path_465" data-name="Path 465" d="M899.593,855.586l-3.889,4.346-6.008-5.377,3.89-4.346,1.162,1.04-2.51,2.8,1.037.928,2.329-2.6,1.162,1.04-2.33,2.6,1.485,1.329,2.51-2.8Z" transform="translate(-809.887 -773.943)" fill="#00a3dc"/>
    <path id="Path_466" data-name="Path 466" d="M951.412,786.553l-2.994,5.005-6.92-4.139,2.994-5.005,1.338.8-1.932,3.23,1.194.714,1.793-3,1.339.8-1.793,3,1.71,1.023,1.932-3.23Z" transform="translate(-857.044 -712.23)" fill="#00a3dc"/>
    <path id="Path_467" data-name="Path 467" d="M139.763,365.557a5.02,5.02,0,0,1-.918,1.411,3.455,3.455,0,0,1-2.8,1.115,5.061,5.061,0,0,1-1.778-.465,5,5,0,0,1-1.472-.969,3.717,3.717,0,0,1-.883-1.306,3.535,3.535,0,0,1-.229-1.524,4.779,4.779,0,0,1,.424-1.672,6.663,6.663,0,0,1,.426-.812,6.023,6.023,0,0,1,.442-.633,4.986,4.986,0,0,1,.479-.5c.158-.146.3-.274.424-.38l1.786.795-.1.218c-.12.057-.266.133-.438.226a4.869,4.869,0,0,0-.533.332,3.555,3.555,0,0,0-.529.47,2.269,2.269,0,0,0-.41.629,2.51,2.51,0,0,0-.21.819,2.006,2.006,0,0,0,.118.853,2.232,2.232,0,0,0,.536.807,3.427,3.427,0,0,0,1.049.68,3.287,3.287,0,0,0,1.244.322,2.2,2.2,0,0,0,.952-.169,1.977,1.977,0,0,0,.69-.5,2.667,2.667,0,0,0,.44-.682,2.535,2.535,0,0,0,.2-.729,3.078,3.078,0,0,0,0-.754,4.9,4.9,0,0,0-.106-.587q-.07-.28-.13-.467l.088-.2,1.761.784q0,.332,0,.633a4.262,4.262,0,0,1-.048.613,7.407,7.407,0,0,1-.143.748,5.523,5.523,0,0,1-.338.9" transform="translate(-119.868 -327.541)" fill="#00a3dc"/>
    <path id="Path_468" data-name="Path 468" d="M176.438,275.786a1.027,1.027,0,0,0-.49-.214.834.834,0,0,0-.53.136,1.577,1.577,0,0,0-.379.331c-.123.142-.262.311-.412.51l-.454.6,1.732,1.309.385-.51a5.943,5.943,0,0,0,.464-.695,1.2,1.2,0,0,0,.163-.583,1.03,1.03,0,0,0-.1-.473,1.253,1.253,0,0,0-.374-.412m6.418.786-1.531,2.026-3.684-.029-.578.765,2.359,1.783-1.247,1.65-6.432-4.862,2.1-2.782a8.026,8.026,0,0,1,.806-.932,2.673,2.673,0,0,1,.862-.557,2.113,2.113,0,0,1,1-.15,2,2,0,0,1,1.023.434,2.4,2.4,0,0,1,.911,1.211,3.119,3.119,0,0,1,.036,1.507Z" transform="translate(-156.336 -248.944)" fill="#00a3dc"/>
    <path id="Path_469" data-name="Path 469" d="M256.761,184.06a2.88,2.88,0,0,1,.741,2.351,4.911,4.911,0,0,1-4.158,3.384,2.878,2.878,0,0,1-2.144-1.2l-3.251-3.994,1.621-1.32,3.176,3.9a1.888,1.888,0,0,0,1.063.748,1.428,1.428,0,0,0,1.146-.4,1.468,1.468,0,0,0,.632-1.024,1.845,1.845,0,0,0-.518-1.212l-3.176-3.9,1.621-1.32Z" transform="translate(-225.707 -163.917)" fill="#00a3dc"/>
    <path id="Path_470" data-name="Path 470" d="M357.007,135.36l-5.235,2.571-3.554-7.238,5.235-2.57.687,1.4-3.378,1.659.613,1.249,3.135-1.539.687,1.4-3.135,1.539.878,1.789,3.378-1.659Z" transform="translate(-316.982 -116.63)" fill="#00a3dc"/>
    <path id="Path_471" data-name="Path 471" d="M452.192,115.75l-5.629,1.463-2.028-7.8,2.013-.523,1.636,6.295,3.616-.94Z" transform="translate(-404.659 -99.119)" fill="#00a3dc"/>
    <path id="Path_472" data-name="Path 472" d="M539.681,91.543l-2.514.136.351,6.494-2.076.112-.351-6.494-2.515.136-.084-1.557,7.105-.383Z" transform="translate(-484.726 -81.914)" fill="#00a3dc"/>
    <path id="Path_473" data-name="Path 473" d="M644.616,91.988,640.893,96.4l-.5,3.079-2.053-.331.481-2.983L636.644,90.7l2.331.376,1.225,3.357,2.159-2.811Z" transform="translate(-579.536 -82.567)" fill="#00a3dc"/>
    <path id="Path_474" data-name="Path 474" d="M775.535,139.51l-3.289-1.715-.693,1.33,3.049,1.59-.721,1.383-3.049-1.59-1.592,3.054L767.4,142.6l3.728-7.15,5.123,2.671Z" transform="translate(-698.567 -123.305)" fill="#00a3dc"/>
    <path id="Path_475" data-name="Path 475" d="M847.175,191.144a1.026,1.026,0,0,0,.239-.478.846.846,0,0,0-.109-.536,1.586,1.586,0,0,0-.312-.4c-.136-.13-.3-.278-.488-.438l-.577-.484-1.4,1.664.49.411a5.961,5.961,0,0,0,.67.5,1.187,1.187,0,0,0,.574.192,1.049,1.049,0,0,0,.477-.08,1.242,1.242,0,0,0,.43-.353m-1.109,6.371-1.946-1.632.215-3.678-.734-.616-1.9,2.265-1.585-1.329,5.181-6.178,2.672,2.241a8.006,8.006,0,0,1,.89.852,2.671,2.671,0,0,1,.513.889,2.111,2.111,0,0,1,.1,1,2.005,2.005,0,0,1-.485,1,2.4,2.4,0,0,1-1.256.848,3.123,3.123,0,0,1-1.507-.04Z" transform="translate(-764.756 -169.63)" fill="#00a3dc"/>
    <path id="Path_476" data-name="Path 476" d="M917.459,276.7l-3.537-4.637,6.411-4.89,3.537,4.637-1.24.946-2.282-2.992-1.107.844,2.118,2.777-1.24.946L918,271.55l-1.585,1.208,2.282,2.993Z" transform="translate(-831.941 -243.204)" fill="#00a3dc"/>
    <path id="Path_477" data-name="Path 477" d="M967.089,362.592l-2.5-5.268,7.283-3.461,2.5,5.267-1.409.669-1.616-3.4-1.257.6,1.5,3.155-1.409.669-1.5-3.155-1.8.855,1.615,3.4Z" transform="translate(-878.06 -322.121)" fill="#00a3dc"/>
  </g>
</svg>
