<svg id="Group_42" data-name="Group 42" xmlns="http://www.w3.org/2000/svg" xmlns:xlink="http://www.w3.org/1999/xlink" width="107.589" height="107.588" viewBox="0 0 107.589 107.588">
  <defs>
    <clipPath id="clip-path">
      <rect id="Rectangle_126" data-name="Rectangle 126" width="107.589" height="107.588" fill="none"/>
    </clipPath>
  </defs>
  <g id="Group_41" data-name="Group 41" transform="translate(0 0)" clip-path="url(#clip-path)">
    <path id="Path_416" data-name="Path 416" d="M226.484,268.437A33.59,33.59,0,1,0,204.2,226.482a33.6,33.6,0,0,0,22.279,41.955m.293-.957a32.59,32.59,0,1,1,40.706-21.615,32.582,32.582,0,0,1-40.706,21.615" transform="translate(-182.528 -182.526)" fill="#01a2dc"/>
    <path id="Path_417" data-name="Path 417" d="M140.658,70.488l-.486,9.151,1.958.1.188-3.54,1.144.033a3.51,3.51,0,0,0,1.329-.293,2.363,2.363,0,0,0,1.2-.991,3.117,3.117,0,0,0,.463-1.478,2.537,2.537,0,0,0-.671-1.972,2.829,2.829,0,0,0-2-.847l-3.129-.166m-5.705.521a3.581,3.581,0,0,0-.6.044l-3.1.47,1.375,9.06,1.939-.294-.532-3.506,1.127-.2a3.513,3.513,0,0,0,1.243-.556,2.364,2.364,0,0,0,.974-1.214,3.116,3.116,0,0,0,.154-1.541,2.537,2.537,0,0,0-1.056-1.8,2.636,2.636,0,0,0-1.525-.47m15.116.35L147.7,80.211l1.908.511.916-3.425.216.058,1.375,4.038,2.184.585-1.487-4.35a2.533,2.533,0,0,0,1.609-.8,3.348,3.348,0,0,0,.736-1.32,2.511,2.511,0,0,0-.268-2.1,3.1,3.1,0,0,0-1.909-1.263Zm-7.127.872a1.817,1.817,0,0,1,1.113.367,1.03,1.03,0,0,1,.352.885,1.154,1.154,0,0,1-.4.824,1.138,1.138,0,0,1-.862.311l-.767-.04.125-2.341.44,0m-8.755.5a1.561,1.561,0,0,1,.819.167,1.029,1.029,0,0,1,.523.8,1.154,1.154,0,0,1-.225.888,1.14,1.14,0,0,1-.782.479l-.759.115-.352-2.318.431-.094a2.948,2.948,0,0,1,.345-.033m17.381.715.438.118a1.78,1.78,0,0,1,.993.583.962.962,0,0,1,.179.893q-.327,1.22-1.816.821l-.412-.11Zm-27.282.232-1.418.571.023,9.868,1.832-.737-.006-1.939,3.257-1.311,1.365,1.391,1.839-.74-6.892-7.1m37.05,1.947a4.755,4.755,0,0,0-1.335.188,4.5,4.5,0,0,0-2.788,2.29,4.633,4.633,0,0,0-.491,3.576,4.422,4.422,0,0,0,2.254,2.752,4.48,4.48,0,0,0,3.554.431,4.694,4.694,0,0,0,.905-8.676,4.365,4.365,0,0,0-2.1-.562M124.7,76.75l2.032,2.094-2.014.81-.018-2.9m36.679.742a2.631,2.631,0,0,1,2.485,1.93,2.951,2.951,0,0,1-.377,2.135,3.021,3.021,0,0,1-1.632,1.492,2.371,2.371,0,0,1-2.007-.2,2.331,2.331,0,0,1-1.2-1.577,2.921,2.921,0,0,1,.345-2.12,3.11,3.11,0,0,1,1.633-1.507,2.291,2.291,0,0,1,.756-.149m8.438,2.741-3.781,9.034,1.248,1.179,8.809-4.284-1.456-1.375-5.868,2.838,2.5-6.02Zm-59.865,2.189-1.131,1.028,3.453,9.245,1.461-1.328-.679-1.816,2.6-2.362,1.764.83,1.467-1.333Zm1.456,2.732,2.632,1.257-1.606,1.46Zm66.608,3.52-7.54,5.208,2.931,4.244,1.493-1.032-1.808-2.619,1.562-1.079,1.808,2.619L177.932,95l-1.809-2.619,1.522-1.051,1.808,2.619,1.493-1.031Zm-72.122.665a4.122,4.122,0,0,0-.864.062,4.28,4.28,0,0,0-2.85,1.967l-1.749,2.592,7.6,5.124,1.655-2.453a4.541,4.541,0,0,0,.837-3.476,4.463,4.463,0,0,0-2.048-2.905,4.891,4.891,0,0,0-2.579-.911m-.53,1.963a2.2,2.2,0,0,1,.383.006,3.27,3.27,0,0,1,1.53.577,2.76,2.76,0,0,1,1.4,1.885,2.98,2.98,0,0,1-.567,2.026l-.437.648-4.693-3.165.406-.6a4.086,4.086,0,0,1,.969-.988,1.874,1.874,0,0,1,1.011-.387m77.383,4.707-8.463,3.513,1.134,2.733a4.542,4.542,0,0,0,2.438,2.615,4.463,4.463,0,0,0,3.552-.107,4.588,4.588,0,0,0,2.607-2.4,4.28,4.28,0,0,0-.07-3.462Zm-83.911,1.1-1.949,4.775,8.484,3.462.746-1.828-3.457-1.411,1.2-2.947-1.655-.675L101,101.444l-1.731-.707,1.207-2.96Zm83.075,1.4.278.67a4.085,4.085,0,0,1,.29,1.353,1.912,1.912,0,0,1-.449,1.373,3.271,3.271,0,0,1-1.325.958,2.759,2.759,0,0,1-2.343.126,2.978,2.978,0,0,1-1.378-1.589l-.3-.722Z" transform="translate(-87.236 -63.466)" fill="#01a2dc"/>
    <path id="Path_418" data-name="Path 418" d="M51.8,20.744a52.03,52.03,0,1,1-31.047,66.71A52.037,52.037,0,0,1,51.8,20.744m.343.94a51.029,51.029,0,1,0,65.427,30.45,51.021,51.021,0,0,0-65.427-30.45" transform="translate(-15.836 -15.829)" fill="#01a2dc"/>
    <path id="Path_419" data-name="Path 419" d="M120.548,668.309l-8.353,3.769.812,1.8,3.4-1.535,1.309,2.9,1.629-.735-1.315-2.914,1.7-.769,1.315,2.914,1.616-.729Zm70.939.378a4.1,4.1,0,0,0-1.274.23,4.282,4.282,0,0,0-2.5,2.4l-1.312,2.838L194.716,678l1.242-2.686a4.541,4.541,0,0,0,.272-3.565,4.462,4.462,0,0,0-2.484-2.541,5.115,5.115,0,0,0-2.26-.519m-.262,2a3.271,3.271,0,0,1,1.6.326,2.761,2.761,0,0,1,1.681,1.638,2.98,2.98,0,0,1-.237,2.09l-.328.709-5.137-2.376.305-.659a4.082,4.082,0,0,1,.8-1.129,1.913,1.913,0,0,1,1.315-.6m-68,3.435-7.436,5.356,1.729,2.4a4.542,4.542,0,0,0,2.972,1.988,4.464,4.464,0,0,0,3.434-.917,4.586,4.586,0,0,0,1.987-2.937,4.28,4.28,0,0,0-.86-3.354Zm62.48,1.014-3.072,4.144,7.362,5.457,3.071-4.144-1.458-1.08-1.895,2.557-1.525-1.13,1.895-2.557-1.435-1.064-1.9,2.557-1.486-1.1,1.9-2.557Zm-62.722,1.612.424.589a4.085,4.085,0,0,1,.592,1.251,1.913,1.913,0,0,1-.124,1.44,3.269,3.269,0,0,1-1.071,1.236,2.759,2.759,0,0,1-2.252.659,2.978,2.978,0,0,1-1.7-1.232l-.456-.634Zm59.238,3.242-1.494,1.334,2.33,6.088-5.786-3-1.489,1.33,8.68,4.534,1.281-1.144Zm-52.243,2.3-8.788,4.491,1.487,1.3,1.726-.883,2.644,2.309-.623,1.847,1.493,1.3,3.211-9.362Zm-1.4,2.765-.946,2.759L126,686.386Zm45.453,2.063a4.838,4.838,0,0,0-2.251.606,4.393,4.393,0,0,0-2.194,2.667,4.5,4.5,0,0,0,.389,3.587,4.632,4.632,0,0,0,2.722,2.371,4.423,4.423,0,0,0,3.538-.378,4.479,4.479,0,0,0,2.308-2.736,4.9,4.9,0,0,0-3.16-5.916,4.475,4.475,0,0,0-1.351-.2m-.05,1.87a2.309,2.309,0,0,1,.738.146,2.949,2.949,0,0,1,1.579,1.484,3.022,3.022,0,0,1,.354,2.183,2.369,2.369,0,0,1-1.269,1.568,2.332,2.332,0,0,1-1.979.143,2.92,2.92,0,0,1-1.584-1.45,3.111,3.111,0,0,1-.367-2.192,2.274,2.274,0,0,1,1.266-1.574,2.6,2.6,0,0,1,1.263-.308m-32.889.357-6.684,7.261,1.846.7,1.312-1.427,3.281,1.248.058,1.949,1.852.7-.237-9.895ZM165,690.68a4.136,4.136,0,0,0-.944.146l-2.914.775,2.357,8.856,1.909-.508-.912-3.426.216-.058,3.2,2.816,2.185-.582-3.457-3.03a2.533,2.533,0,0,0,.995-1.5,3.349,3.349,0,0,0-.02-1.512,2.513,2.513,0,0,0-1.28-1.689A2.688,2.688,0,0,0,165,690.68m-18.113.579-1.3,9.071,1.942.277.5-3.509,1.137.134a3.513,3.513,0,0,0,1.351-.174,2.363,2.363,0,0,0,1.282-.881,3.119,3.119,0,0,0,.592-1.431,2.538,2.538,0,0,0-.493-2.023,2.828,2.828,0,0,0-1.912-1.021Zm10.6.684c-.1,0-.2,0-.309.006l-3.129.178.52,9.148,1.958-.111-.2-3.54,1.141-.093a3.512,3.512,0,0,0,1.29-.437,2.363,2.363,0,0,0,1.083-1.117,3.118,3.118,0,0,0,.3-1.52,2.537,2.537,0,0,0-.883-1.886,2.72,2.72,0,0,0-1.769-.629m-16.738.479.07,2.917-2.029-.772Zm23.811.04a1.4,1.4,0,0,1,.519.1.962.962,0,0,1,.6.685q.325,1.221-1.166,1.618l-.411.109-.614-2.306.438-.117a2.419,2.419,0,0,1,.632-.089m-15.988.7.439.035a1.817,1.817,0,0,1,1.076.464,1.029,1.029,0,0,1,.271.913,1.153,1.153,0,0,1-.472.785,1.14,1.14,0,0,1-.886.233l-.76-.109.332-2.321m8.285.445a1.564,1.564,0,0,1,.8.243,1.03,1.03,0,0,1,.446.842,1.154,1.154,0,0,1-.307.863,1.141,1.141,0,0,1-.823.4L156.2,696l-.133-2.341.437-.053a2.928,2.928,0,0,1,.346,0" transform="translate(-101.018 -601.729)" fill="#01a2dc"/>
    <path id="Path_420" data-name="Path 420" d="M295.061,435.752l-22.128.019v20.745h1.575V437.531l20.374-.018a8.613,8.613,0,1,1,.024,17.226l-5.85,0,.03-10.507-1.572,0-.035,12.275,7.616,0,2.607.016c1.263-.051,3.46-3.081,4.719-5.1l9.038-15.657h-2.123l-4.357,7.238a10.4,10.4,0,0,0-9.916-7.242m16.465,0,11.483,19.091-15.178-.1-.008,1.772H326.14l-12.316-20.761Zm-.02,1.675L300.49,456.517h1.486l9.592-15.934,6.887,11.608-10.61-.054-.008,1.727,13.61.091Zm-16.623.962-19.5.016v8.667h9.625v.88h-9.625v8.559h1.947v-6.8H285.2v-4.4h-7.864V440.17l17.739-.015h0a5.971,5.971,0,1,1,.013,11.943l-3.2,0,.023-7.857-1.95-.006-.028,9.625,4.966,0a7.733,7.733,0,1,0-.021-15.465" transform="translate(-245.742 -392.341)" fill="#01a2dc" fill-rule="evenodd"/>
    <path id="Path_421" data-name="Path 421" d="M35.363,3.268A53.781,53.781,0,1,1,3.27,72.224,53.788,53.788,0,0,1,35.363,3.268m.343.94a52.781,52.781,0,1,0,67.672,31.5,52.773,52.773,0,0,0-67.672-31.5" transform="translate(0 0.002)" fill="#01a2dc"/>
    <path id="Path_422" data-name="Path 422" d="M242.833,282.593a31.839,31.839,0,1,0-21.117-39.768,31.846,31.846,0,0,0,21.117,39.768m.293-.956a30.838,30.838,0,1,1,38.518-20.454,30.831,30.831,0,0,1-38.518,20.454" transform="translate(-198.364 -198.356)" fill="#01a2dc"/>
    <path id="Path_423" data-name="Path 423" d="M87.762,506.081l-2.743-1.955-2.725,1.979,1.012-3.212-2.724-1.98,3.368-.031,1.041-3.2,1.07,3.194h3.368l-2.707,2Z" transform="translate(-72.554 -448.098)" fill="#01a2dc"/>
    <path id="Path_424" data-name="Path 424" d="M922.184,506.081l-2.743-1.955-2.725,1.979,1.012-3.212L915,500.913l3.368-.031,1.041-3.2,1.07,3.194h3.368l-2.707,2Z" transform="translate(-823.847 -448.098)" fill="#01a2dc"/>
  </g>
</svg>
