<svg xmlns="http://www.w3.org/2000/svg" xmlns:xlink="http://www.w3.org/1999/xlink" width="168.899" height="110.098" viewBox="0 0 168.899 110.098">
  <defs>
    <clipPath id="clip-path">
      <rect id="Rectangle_136" data-name="Rectangle 136" width="168.899" height="110.098" fill="none"/>
    </clipPath>
  </defs>
  <g id="Group_54" data-name="Group 54" transform="translate(0 0)">
    <g id="Group_53" data-name="Group 53" transform="translate(0 0)" clip-path="url(#clip-path)">
      <path id="Path_874" data-name="Path 874" d="M129.588,50.229c6.632-4.6,13.951-9.457,16.664-15.779,2.708-5.923-1.3-12.3-6.709-15.95-11.832-7.5-27.809-7.647-42.173-3.633-14.746,3.714-29,11.374-44.508,17.292C37.519,38.114,20.675,42.587,4.115,40.984,20.186,37.234,34.546,30.512,48.762,23.09c14.113-7.445,28.5-15.972,45.384-20.552,16.578-4.3,36.623-4.086,51.509,8.159,3.552,3.116,6.821,7.225,8.074,12.142a17.018,17.018,0,0,1-2.057,14.683c-5.95,7.818-14.266,10.422-22.083,12.708" transform="translate(14.363 0)" fill="#fff"/>
      <path id="Path_875" data-name="Path 875" d="M0,40.282c21.607-2.649,41.931-8.752,62.169-15.739,10.157-3.52,20.058-7.2,30.817-10.507,10.727-3.067,22.51-5.123,34.818-2.919a38.69,38.69,0,0,1,17.283,8.222,29.132,29.132,0,0,1,9.883,17.4,27.627,27.627,0,0,1-4.1,19.6,34.567,34.567,0,0,1-14.517,11.881,67.266,67.266,0,0,1-33.592,6.062C91.477,73.227,80.354,68.8,72.73,60.874c18.931,11.378,41.782,8.2,59-1.455a27.477,27.477,0,0,0,9.7-9.039,16.02,16.02,0,0,0,1.661-11.5c-1.464-8.033-8.806-13.615-17.827-15.281-18.509-3.673-39.129,5.622-60.283,10.445C43.942,39.361,21.684,42.958,0,40.282" transform="translate(0 35.583)" fill="#fff"/>
    </g>
  </g>
</svg>
