<svg id="Group_5" data-name="Group 5" xmlns="http://www.w3.org/2000/svg" xmlns:xlink="http://www.w3.org/1999/xlink" width="207.102" height="96.646" viewBox="0 0 207.102 96.646">
  <defs>
    <clipPath id="clip-path">
      <rect id="Rectangle_27" data-name="Rectangle 27" width="207.102" height="96.646" fill="none"/>
    </clipPath>
  </defs>
  <g id="Group_4" data-name="Group 4" clip-path="url(#clip-path)">
    <path id="Path_1" data-name="Path 1" d="M142.513,19.854c2.622-1.819,5.515-3.738,6.587-6.237,1.07-2.341-.515-4.863-2.652-6.3-4.678-2.966-10.993-3.024-16.67-1.437-5.829,1.468-11.463,4.5-17.592,6.834-6.064,2.354-12.723,4.122-19.268,3.488a74.682,74.682,0,0,0,17.648-7.072C116.144,6.183,121.831,2.814,128.5,1c6.554-1.7,14.476-1.615,20.361,3.225a9.831,9.831,0,0,1,3.191,4.8,6.729,6.729,0,0,1-.813,5.8c-2.351,3.091-5.639,4.119-8.728,5.023" transform="translate(-19.76 0)" fill="#b0cfb0"/>
    <path id="Path_2" data-name="Path 2" d="M83.642,34.873c8.539-1.047,16.573-3.46,24.574-6.221,4.015-1.391,7.927-2.846,12.179-4.154a30.269,30.269,0,0,1,13.763-1.153,15.276,15.276,0,0,1,6.831,3.251,11.515,11.515,0,0,1,3.908,6.878,10.921,10.921,0,0,1-1.62,7.749,13.672,13.672,0,0,1-5.738,4.7,26.588,26.588,0,0,1-13.277,2.4,18.945,18.945,0,0,1-11.872-5.3c7.483,4.5,16.515,3.241,23.32-.575a10.871,10.871,0,0,0,3.833-3.572,6.335,6.335,0,0,0,.657-4.545c-.58-3.175-3.482-5.381-7.047-6.04-7.316-1.452-15.466,2.222-23.828,4.129-8.315,2.1-17.112,3.519-25.683,2.463" transform="translate(-17.788 -4.887)" fill="#b0cfb0"/>
    <path id="Path_3" data-name="Path 3" d="M8.082,91.272H0V71.07H7.7c4.274,0,6.541,2.353,6.541,5.2a4.726,4.726,0,0,1-3.43,4.621,5.026,5.026,0,0,1,3.895,4.942c0,3.08-2.5,5.436-6.626,5.436m-.67-17.5h-4.1v5.784h4.1c2.151,0,3.46-1.016,3.46-2.876,0-1.831-1.309-2.908-3.46-2.908m.261,8.488H3.314v6.307H7.789c2.24,0,3.605-1.132,3.605-3.079,0-2.006-1.512-3.227-3.721-3.227" transform="translate(0 -15.114)" fill="#fdd0b0"/>
    <path id="Path_4" data-name="Path 4" d="M36.871,71.07c4.8,0,7.151,2.76,7.151,6.045A5.75,5.75,0,0,1,39.34,82.9l5,8.372H40.388l-4.652-8.082H33.208v8.082H29.894V71.07Zm0,2.7H33.208v6.773h3.663c2.586,0,3.749-1.425,3.749-3.43,0-2.034-1.163-3.343-3.749-3.343" transform="translate(-6.357 -15.114)" fill="#fdd0b0"/>
    <path id="Path_5" data-name="Path 5" d="M71.026,73.735H63.179v5.931h6.977v2.7H63.179v6.19h7.847v2.7H59.864V71.033H71.026Z" transform="translate(-12.731 -15.106)" fill="#fdd0b0"/>
    <path id="Path_6" data-name="Path 6" d="M97.009,73.735H89.161v5.931h6.977v2.7H89.161v6.19h7.847v2.7H85.847V71.033H97.009Z" transform="translate(-18.256 -15.106)" fill="#fdd0b0"/>
    <path id="Path_7" data-name="Path 7" d="M124.22,73.656l-9.388,14.737h9.388v2.879H110.908V88.683l9.359-14.737h-9.359V71.069H124.22Z" transform="translate(-23.586 -15.114)" fill="#fdd0b0"/>
    <path id="Path_8" data-name="Path 8" d="M150.228,73.735H142.38v5.931h6.977v2.7H142.38v6.19h7.847v2.7H139.066V71.033h11.162Z" transform="translate(-29.574 -15.106)" fill="#fdd0b0"/>
    <path id="Path_9" data-name="Path 9" d="M183.864,75.449a1.94,1.94,0,0,0-2.034-2.267,1.986,1.986,0,0,0-2.15,1.947c0,1.105.609,2.005,2.034,3.546L187.062,84l2.064-3.4H192.7l-2.616,4.475c-.232.409-.5.815-.727,1.193l4.913,4.884h-4.33l-2.5-2.5a9.361,9.361,0,0,1-7.006,2.879c-4.359,0-7.265-2.412-7.265-6.19,0-2.734,1.539-5.03,4.737-6.338a5.549,5.549,0,0,1-1.542-3.866c0-2.644,2.151-4.649,5.611-4.649,3.517,0,5.407,2.208,5.2,4.969Zm1.4,11.016-5.348-5.378c-2.354.931-3.43,2.327-3.43,4.129,0,1.948,1.57,3.486,3.952,3.486a6.363,6.363,0,0,0,4.826-2.238" transform="translate(-36.827 -14.988)" fill="#fdd0b0"/>
    <path id="Path_10" data-name="Path 10" d="M227.053,91.272h-8.082V71.07h7.7c4.274,0,6.541,2.353,6.541,5.2a4.726,4.726,0,0,1-3.43,4.621,5.026,5.026,0,0,1,3.895,4.942c0,3.08-2.5,5.436-6.626,5.436m-.67-17.5h-4.1v5.784h4.1c2.151,0,3.46-1.016,3.46-2.876,0-1.831-1.309-2.908-3.46-2.908m.261,8.488h-4.359v6.307h4.476c2.239,0,3.6-1.132,3.6-3.079,0-2.006-1.512-3.227-3.721-3.227" transform="translate(-46.567 -15.114)" fill="#fdd0b0"/>
    <path id="Path_11" data-name="Path 11" d="M260.027,73.735h-7.847v5.931h6.977v2.7h-6.977v6.19h7.847v2.7H248.864V71.033h11.162Z" transform="translate(-52.924 -15.106)" fill="#fdd0b0"/>
    <path id="Path_12" data-name="Path 12" d="M57.657,120.135c-1.9,0-3.245-1.06-3.273-2.621H55.7a1.754,1.754,0,0,0,1.956,1.575c1.194,0,1.9-.68,1.9-1.575,0-2.553-5.12-.924-5.12-4.441,0-1.56,1.263-2.619,3.138-2.619,1.8,0,2.986.991,3.136,2.431H59.354a1.712,1.712,0,0,0-1.834-1.371c-1.018-.029-1.819.5-1.819,1.52,0,2.443,5.106.923,5.106,4.426,0,1.344-1.1,2.675-3.15,2.675" transform="translate(-11.565 -23.489)" fill="#b0cfb0"/>
    <path id="Path_13" data-name="Path 13" d="M76.772,115.755v4.318H75.536V110.61h1.236v4.384l3.909-4.384h1.562l-4.291,4.739,4.332,4.724H80.669Z" transform="translate(-16.064 -23.523)" fill="#b0cfb0"/>
    <rect id="Rectangle_26" data-name="Rectangle 26" width="1.236" height="9.463" transform="translate(76.016 87.087)" fill="#b0cfb0"/>
    <path id="Path_14" data-name="Path 14" d="M118.919,110.591v9.478h-1.236l-4.969-7.537v7.537h-1.236v-9.478h1.236l4.969,7.522v-7.522Z" transform="translate(-23.707 -23.519)" fill="#b0cfb0"/>
    <path id="Path_15" data-name="Path 15" d="M138.423,110.454a4.451,4.451,0,0,1,4.384,2.864h-1.479a2.976,2.976,0,0,0-2.905-1.778,3.766,3.766,0,0,0,0,7.508,2.987,2.987,0,0,0,2.905-1.765h1.479a4.449,4.449,0,0,1-4.384,2.837,4.834,4.834,0,0,1,0-9.666" transform="translate(-28.433 -23.489)" fill="#b0cfb0"/>
    <path id="Path_16" data-name="Path 16" d="M163.71,117.982h-4.127l-.759,2.105h-1.3l3.422-9.409h1.425l3.409,9.409h-1.3Zm-2.064-5.784-1.711,4.781h3.422Z" transform="translate(-33.498 -23.537)" fill="#b0cfb0"/>
    <path id="Path_17" data-name="Path 17" d="M183.638,110.61c2.227,0,3.287,1.236,3.287,2.783a2.668,2.668,0,0,1-2.254,2.715l2.375,3.965h-1.479l-2.255-3.87h-1.493v3.87h-1.236V110.61Zm0,1.018h-1.819v3.584h1.819c1.4,0,2.009-.759,2.009-1.819s-.6-1.765-2.009-1.765" transform="translate(-38.403 -23.523)" fill="#b0cfb0"/>
    <path id="Path_18" data-name="Path 18" d="M206.844,111.609h-3.856v3.165h3.449v1.018h-3.449v3.258h3.856v1.018h-5.092v-9.477h5.092Z" transform="translate(-42.905 -23.519)" fill="#b0cfb0"/>
  </g>
</svg>
